<svg version="1.1" xmlns="http://www.w3.org/2000/svg" viewBox="-2 -2 28 28">
    <path fill="none" stroke="#1d1d1d" stroke-linecap="round" stroke-linejoin="round" stroke-miterlimit="10" d="M19.9,7.8c-0.2-0.9,0.3-2-0.1-2.8c-0.4-0.8-1.6-1-2.2-1.6c-0.7-0.6-0.9-1.8-1.7-2.2c-0.8-0.4-1.9,0.1-2.8,0 c-0.9-0.1-1.8-0.9-2.7-0.7C9.5,0.7,9,1.7,8.2,2.2c-0.8,0.4-2,0.3-2.6,1C5,3.8,5.2,5,4.8,5.8C4.4,6.6,3.4,7.2,3.3,8.1 C3.1,9,4,9.8,4.1,10.7c0.2,0.9-0.3,2,0.1,2.8c0.4,0.8,1.6,1,2.2,1.6c0.7,0.6,0.9,1.8,1.7,2.2c0.8,0.4,1.9-0.1,2.8,0 c0.9,0.1,1.8,0.9,2.7,0.7c0.9-0.2,1.4-1.2,2.2-1.6c0.8-0.4,2-0.3,2.6-1c0.6-0.7,0.5-1.9,0.8-2.6c0.4-0.8,1.4-1.4,1.5-2.3 C20.9,9.5,20,8.7,19.9,7.8z"/>
    <circle fill="none" stroke="#1d1d1d" stroke-linecap="round" stroke-linejoin="round" stroke-miterlimit="10" cx="12" cy="9.3" r="4.4"/>
    <polyline fill="none" stroke="#1d1d1d" stroke-linecap="round" stroke-linejoin="round" stroke-miterlimit="10" points="11,19.9 9.4,22.9 6.9,19.7 2.6,20 5,15.4"/>
    <polyline fill="none" stroke="#1d1d1d" stroke-linecap="round" stroke-linejoin="round" stroke-miterlimit="10" points="18.4,15.4 21.4,19.2 17,19.5 15.1,23 10.5,17.2"/>
</svg>